<svg width="48" height="48" viewBox="0 0 48 48" fill="none" xmlns="http://www.w3.org/2000/svg">
<path d="M29.8625 3.78694L28.6711 6.38391C28.4933 6.77143 28.208 7.09978 27.8491 7.32997C27.4902 7.56016 27.0728 7.68253 26.6464 7.68253H6.238C5.00781 7.68253 4.0105 8.67984 4.0105 9.91003V33.2723C4.0105 34.5024 5.00781 35.4998 6.238 35.4998H43.7004C44.9306 35.4998 45.9279 34.5024 45.9279 33.2723V4.71581C45.9279 3.48562 44.9306 2.48831 43.7004 2.48831H31.8872C31.4608 2.48832 31.0434 2.61068 30.6845 2.84087C30.3256 3.07107 30.0403 3.39942 29.8625 3.78694Z" fill="#948E8C"/>
<path d="M41.5 9H7C5.89543 9 5 9.89543 5 11V38C5 39.1046 5.89543 40 7 40H41.5C42.6046 40 43.5 39.1046 43.5 38V11C43.5 9.89543 42.6046 9 41.5 9Z" fill="#D1D1D1"/>
<path d="M40 11.5H6C4.89543 11.5 4 12.3954 4 13.5V40C4 41.1046 4.89543 42 6 42H40C41.1046 42 42 41.1046 42 40V13.5C42 12.3954 41.1046 11.5 40 11.5Z" fill="#EDEDED"/>
<path d="M38.5342 14H5C3.89543 14 3 14.8954 3 16V41C3 42.1046 3.89543 43 5 43H38.9652C40.0833 43 40.9842 42.0834 40.9649 40.9655L40.5339 15.9655C40.5151 14.8746 39.6253 14 38.5342 14Z" fill="white"/>
<path d="M43.903 36.9992V18.8601C43.903 17.6299 42.9057 16.6326 41.6755 16.6326H21.267C20.8406 16.6326 20.4232 16.5102 20.0643 16.28C19.7054 16.0498 19.4201 15.7215 19.2423 15.3339L18.0509 12.737C17.8731 12.3494 17.5878 12.0211 17.2289 11.7909C16.87 11.5607 16.4526 11.4383 16.0262 11.4383H4.2131C2.98291 11.4383 1.9856 12.4357 1.9856 13.6658V41.2841C1.9856 42.5143 2.98291 43.5116 4.2131 43.5116H41.6755L42 43.5C42 43.5 42.3665 43.5116 42.5261 43.5116C44.4048 43.5116 45.9278 41.9887 45.9278 40.1099C45.9278 38.7213 45.0955 37.5278 43.903 36.9992Z" fill="#64748B"/>
<path d="M43.9028 29.7506V39.7227H43.9069C43.9069 40.2807 44.3592 40.7331 44.9172 40.7331C45.4752 40.7331 45.9275 40.2807 45.9275 39.7227V29.7506H43.9028Z" fill="#948E8C"/>
</svg>
