<svg width="722" height="546" viewBox="0 0 722 546" fill="none" xmlns="http://www.w3.org/2000/svg">
<path d="M720.5 278.5L0 278.5C11 202 81 215 95 228.5C95 146 176 158.5 184 168.5C173.5 101.5 266 37 329.5 113C392.5 -67.5 653 -19.5 631 181.5C738 179 720.5 278.5 720.5 278.5Z" fill="#566885"/>
<path d="M263 377L318 279H356L337 310H483L395 467H319L275 546H237L320 400H394L407 377H263Z" fill="#facc15"/>
<path d="M296 400H149V467H258.5L296 400Z" fill="#353445"/>
<path d="M422 467H672V401.117H460L422 467Z" fill="#353445"/>
<path d="M658 413H617V454H658V413Z" fill="white"/>
<path d="M278 310H100L100 377H240L278 310Z" fill="#353445"/>
<path d="M471 377H628V310H508L471 377Z" fill="#353445"/>
<path d="M614 323H573V364H614V323Z" fill="white"/>
</svg>
