<svg width="152" height="213" viewBox="0 0 152 213" fill="none" xmlns="http://www.w3.org/2000/svg">
<path d="M1 206V97C1 93.6863 3.68629 91 7 91H145.5C148.814 91 151.5 93.6863 151.5 97V206C151.5 209.314 148.814 212 145.5 212H7C3.68629 212 1 209.314 1 206Z" fill="#D9D9D9"/>
<path d="M123.714 17.7362C82.848 13.3698 88.4929 33.4108 84.354 62.1744C84.1787 63.3932 85.1162 64.5 86.3476 64.5H94.0998C96.0116 64.5 96.8337 66.9252 95.316 68.0877L77.743 81.548C77.0129 82.1072 75.9955 82.0964 75.2774 81.5219L58.4522 68.0617C56.9759 66.8807 57.811 64.5 59.7016 64.5H68.2809C69.2695 64.5 70.1123 63.7707 70.2481 62.7915C75.3718 25.8333 64.1078 -3.83518 124.172 2.30452C125.185 2.40812 126 3.27054 126 4.28931V15.7376C126 16.9395 124.909 17.8639 123.714 17.7362Z" fill="#D9D9D9"/>
<path d="M1 206V97C1 93.6863 3.68629 91 7 91H145.5C148.814 91 151.5 93.6863 151.5 97V206C151.5 209.314 148.814 212 145.5 212H7C3.68629 212 1 209.314 1 206Z" stroke="black"/>
<path d="M123.714 17.7362C82.848 13.3698 88.4929 33.4108 84.354 62.1744C84.1787 63.3932 85.1162 64.5 86.3476 64.5H94.0998C96.0116 64.5 96.8337 66.9252 95.316 68.0877L77.743 81.548C77.0129 82.1072 75.9955 82.0964 75.2774 81.5219L58.4522 68.0617C56.9759 66.8807 57.811 64.5 59.7016 64.5H68.2809C69.2695 64.5 70.1123 63.7707 70.2481 62.7915C75.3718 25.8333 64.1078 -3.83518 124.172 2.30452C125.185 2.40812 126 3.27054 126 4.28931V15.7376C126 16.9395 124.909 17.8639 123.714 17.7362Z" stroke="black"/>
</svg>
